<svg width="199" height="30" viewBox="0 0 199 30" fill="none" xmlns="http://www.w3.org/2000/svg">
<g clip-path="url(#clip0_201_9339)">
<path d="M62.3719 26C60.6997 26 59.1484 25.7381 57.718 25.2143C56.2876 24.6703 55.0486 23.9048 54.001 22.9176C52.9735 21.9304 52.1677 20.772 51.5834 19.4423C50.9992 18.0925 50.707 16.6117 50.707 15C50.707 13.3883 50.9992 11.9176 51.5834 10.5879C52.1677 9.2381 52.9836 8.0696 54.0312 7.08242C55.0788 6.09524 56.3178 5.33974 57.7482 4.81593C59.1988 4.27198 60.7803 4 62.4927 4C64.4873 4 66.2702 4.33242 67.8416 4.99725C69.4131 5.66209 70.7125 6.61905 71.74 7.86813L67.9323 11.3132C67.207 10.5275 66.4213 9.94322 65.5752 9.56044C64.7492 9.15751 63.8224 8.95605 62.7949 8.95605C61.8883 8.95605 61.0623 9.09707 60.3169 9.37912C59.5715 9.66117 58.9369 10.0742 58.4131 10.6181C57.8893 11.1419 57.4763 11.7766 57.1741 12.522C56.892 13.2473 56.751 14.0733 56.751 15C56.751 15.8864 56.892 16.7024 57.1741 17.4478C57.4763 18.1932 57.8893 18.8379 58.4131 19.3819C58.9369 19.9057 59.5614 20.3187 60.2867 20.6209C61.0321 20.9029 61.8481 21.044 62.7345 21.044C63.6209 21.044 64.4873 20.9029 65.3334 20.6209C66.1796 20.3187 67.0358 19.815 67.9021 19.1099L71.2565 23.3104C70.0477 24.1767 68.6475 24.8416 67.0559 25.3049C65.4644 25.7683 63.903 26 62.3719 26ZM65.968 22.5247V14.5467H71.2565V23.3104L65.968 22.5247Z" fill="white"/>
<path d="M80.3989 25.5769V16.6319L81.789 20.228L72.3302 4.42308H78.6462L85.4758 15.8764H81.8192L88.6791 4.42308H94.4813L85.0528 20.228L86.3824 16.6319V25.5769H80.3989Z" fill="white"/>
<path d="M95.9146 25.5769V4.42308H100.84L109.604 18.8077H107.005L115.527 4.42308H120.453L120.514 25.5769H115.014L114.953 12.794H115.89L109.514 23.4918H106.854L100.297 12.794H101.445V25.5769H95.9146Z" fill="white"/>
<path d="M132.181 26C130.449 26 128.777 25.7885 127.165 25.3654C125.573 24.9222 124.274 24.3581 123.267 23.6731L125.231 19.261C126.178 19.8654 127.266 20.369 128.495 20.772C129.744 21.1548 130.983 21.3462 132.212 21.3462C133.038 21.3462 133.703 21.2756 134.206 21.1346C134.71 20.9734 135.072 20.772 135.294 20.5302C135.536 20.2683 135.657 19.9661 135.657 19.6236C135.657 19.1401 135.435 18.7573 134.992 18.4753C134.549 18.1932 133.974 17.9615 133.269 17.7802C132.564 17.5989 131.779 17.4176 130.912 17.2363C130.066 17.0549 129.21 16.8233 128.344 16.5412C127.497 16.2592 126.722 15.8965 126.017 15.4533C125.311 14.9899 124.737 14.3956 124.294 13.6703C123.851 12.9249 123.629 11.9881 123.629 10.8599C123.629 9.59066 123.972 8.44231 124.657 7.41484C125.362 6.38736 126.409 5.56136 127.8 4.93681C129.19 4.31227 130.922 4 132.997 4C134.387 4 135.747 4.16117 137.077 4.48352C138.427 4.78571 139.626 5.23901 140.673 5.84341L138.83 10.2857C137.822 9.74176 136.825 9.33883 135.838 9.07692C134.851 8.79487 133.894 8.65385 132.967 8.65385C132.141 8.65385 131.476 8.74451 130.973 8.92583C130.469 9.087 130.106 9.30861 129.885 9.59066C129.663 9.87271 129.552 10.1951 129.552 10.5577C129.552 11.0211 129.764 11.3938 130.187 11.6758C130.63 11.9377 131.204 12.1593 131.909 12.3407C132.635 12.5018 133.42 12.6731 134.267 12.8544C135.133 13.0357 135.989 13.2674 136.835 13.5495C137.702 13.8114 138.487 14.174 139.192 14.6374C139.898 15.0806 140.462 15.6749 140.885 16.4203C141.328 17.1456 141.55 18.0623 141.55 19.1703C141.55 20.3993 141.197 21.5375 140.492 22.5852C139.807 23.6126 138.769 24.4386 137.379 25.0632C136.009 25.6877 134.277 26 132.181 26Z" fill="white"/>
<path d="M144.314 25.5769V4.42308H150.297V25.5769H144.314Z" fill="white"/>
<path d="M165.101 26C163.429 26 161.877 25.7381 160.447 25.2143C159.037 24.6703 157.808 23.9048 156.76 22.9176C155.733 21.9304 154.927 20.772 154.342 19.4423C153.758 18.0925 153.466 16.6117 153.466 15C153.466 13.3883 153.758 11.9176 154.342 10.5879C154.927 9.2381 155.733 8.0696 156.76 7.08242C157.808 6.09524 159.037 5.33974 160.447 4.81593C161.877 4.27198 163.429 4 165.101 4C167.055 4 168.798 4.34249 170.329 5.02747C171.88 5.71245 173.169 6.69963 174.197 7.98901L170.389 11.4341C169.704 10.6282 168.949 10.0137 168.123 9.59066C167.317 9.16758 166.41 8.95605 165.403 8.95605C164.537 8.95605 163.741 9.09707 163.016 9.37912C162.29 9.66117 161.666 10.0742 161.142 10.6181C160.638 11.1419 160.235 11.7766 159.933 12.522C159.651 13.2674 159.51 14.0934 159.51 15C159.51 15.9066 159.651 16.7326 159.933 17.478C160.235 18.2234 160.638 18.8681 161.142 19.4121C161.666 19.9359 162.29 20.3388 163.016 20.6209C163.741 20.9029 164.537 21.044 165.403 21.044C166.41 21.044 167.317 20.8324 168.123 20.4093C168.949 19.9863 169.704 19.3718 170.389 18.5659L174.197 22.011C173.169 23.2802 171.88 24.2674 170.329 24.9725C168.798 25.6575 167.055 26 165.101 26Z" fill="white"/>
<path d="M182.214 20.8929L181.881 14.1841L190.977 4.42308H197.565L188.499 14.2445L185.175 17.7198L182.214 20.8929ZM176.865 25.5769V4.42308H182.788V25.5769H176.865ZM191.068 25.5769L184.178 16.8434L188.076 12.6731L198.019 25.5769H191.068Z" fill="white"/>
<path d="M6.40601 2.14286C6.40601 0.957589 7.36024 0 8.54135 0H10.6767C11.8578 0 12.812 0.957589 12.812 2.14286V12.8571V17.1429V27.8571C12.812 29.0424 11.8578 30 10.6767 30H8.54135C7.36024 30 6.40601 29.0424 6.40601 27.8571V23.5714H4.27068C3.08957 23.5714 2.13534 22.6138 2.13534 21.4286V17.1429C0.954229 17.1429 0 16.1853 0 15C0 13.8147 0.954229 12.8571 2.13534 12.8571V8.57143C2.13534 7.38616 3.08957 6.42857 4.27068 6.42857H6.40601V2.14286ZM36.3008 2.14286V6.42857H38.4361C39.6172 6.42857 40.5714 7.38616 40.5714 8.57143V12.8571C41.7525 12.8571 42.7068 13.8147 42.7068 15C42.7068 16.1853 41.7525 17.1429 40.5714 17.1429V21.4286C40.5714 22.6138 39.6172 23.5714 38.4361 23.5714H36.3008V27.8571C36.3008 29.0424 35.3465 30 34.1654 30H32.0301C30.849 30 29.8947 29.0424 29.8947 27.8571V17.1429V12.8571V2.14286C29.8947 0.957589 30.849 0 32.0301 0H34.1654C35.3465 0 36.3008 0.957589 36.3008 2.14286ZM27.7594 12.8571V17.1429H14.9474V12.8571H27.7594Z" fill="#EB5E28"/>
</g>
<defs>
<clipPath id="clip0_201_9339">
<rect width="199" height="30" fill="white"/>
</clipPath>
</defs>
</svg>
